<mxfile host="Electron" modified="2023-05-30T16:23:46.826Z" agent="Mozilla/5.0 (X11; Linux x86_64) AppleWebKit/537.36 (KHTML, like Gecko) draw.io/21.2.8 Chrome/112.0.5615.165 Electron/24.2.0 Safari/537.36" etag="p9KNE-p0lT_306cURx-S" version="21.2.8" type="device">
  <diagram name="Pàgina-1" id="bBgiHrPNS2ZgieH73Jew">
    <mxGraphModel dx="1434" dy="870" grid="1" gridSize="10" guides="1" tooltips="1" connect="1" arrows="1" fold="1" page="1" pageScale="1" pageWidth="1169" pageHeight="827" math="0" shadow="0">
      <root>
        <mxCell id="0" />
        <mxCell id="1" parent="0" />
        <mxCell id="AxkiLZUDBh2oXADrsPW7-1" value="&lt;div style=&quot;font-size: 14px;&quot;&gt;&lt;font style=&quot;font-size: 14px;&quot;&gt;&lt;b&gt;Crown fire&lt;/b&gt;&lt;/font&gt;&lt;/div&gt;&lt;div style=&quot;font-size: 14px;&quot;&gt;&lt;font style=&quot;font-size: 14px;&quot;&gt;&lt;b&gt;behavior&lt;/b&gt;&lt;/font&gt;&lt;br&gt;&lt;/div&gt;" style="rounded=0;whiteSpace=wrap;html=1;fillColor=#e3c800;strokeColor=#B09500;fontColor=#000000;" parent="1" vertex="1">
          <mxGeometry x="14" y="150" width="120" height="60" as="geometry" />
        </mxCell>
        <mxCell id="AxkiLZUDBh2oXADrsPW7-6" value="&lt;b&gt;&lt;font style=&quot;font-size: 13px;&quot;&gt;Tc bud &amp;lt; 900 ºC?&lt;/font&gt;&lt;/b&gt;" style="rhombus;whiteSpace=wrap;html=1;fillColor=#dae8fc;strokeColor=#6c8ebf;" parent="1" vertex="1">
          <mxGeometry x="387" y="107" width="127" height="80" as="geometry" />
        </mxCell>
        <mxCell id="AxkiLZUDBh2oXADrsPW7-8" value="&lt;div style=&quot;font-size: 14px;&quot;&gt;&lt;font style=&quot;font-size: 14px;&quot;&gt;&lt;b&gt;Critical temperature for bud necrosis&lt;/b&gt;&lt;/font&gt;&lt;/div&gt;&lt;div style=&quot;&quot;&gt;&lt;font style=&quot;font-size: 12px;&quot;&gt;[Tc bud]&lt;/font&gt;&lt;/div&gt;" style="text;html=1;strokeColor=none;fillColor=none;align=center;verticalAlign=middle;whiteSpace=wrap;rounded=0;" parent="1" vertex="1">
          <mxGeometry x="199" y="101" width="120" height="90" as="geometry" />
        </mxCell>
        <mxCell id="AxkiLZUDBh2oXADrsPW7-11" value="" style="endArrow=classic;html=1;rounded=0;" parent="1" source="AxkiLZUDBh2oXADrsPW7-8" target="AxkiLZUDBh2oXADrsPW7-6" edge="1">
          <mxGeometry width="50" height="50" relative="1" as="geometry">
            <mxPoint x="400" y="427" as="sourcePoint" />
            <mxPoint x="450" y="377" as="targetPoint" />
          </mxGeometry>
        </mxCell>
        <mxCell id="AxkiLZUDBh2oXADrsPW7-13" value="&lt;b&gt;&lt;font style=&quot;font-size: 13px;&quot;&gt;100% crown bud necrosis&lt;/font&gt;&lt;/b&gt;" style="rounded=0;whiteSpace=wrap;html=1;fillColor=#ffe6cc;strokeColor=#d79b00;" parent="1" vertex="1">
          <mxGeometry x="602" y="160" width="131" height="40" as="geometry" />
        </mxCell>
        <mxCell id="AxkiLZUDBh2oXADrsPW7-14" value="" style="endArrow=classic;html=1;rounded=0;" parent="1" source="AxkiLZUDBh2oXADrsPW7-6" target="AxkiLZUDBh2oXADrsPW7-13" edge="1">
          <mxGeometry relative="1" as="geometry">
            <mxPoint x="520" y="147" as="sourcePoint" />
            <mxPoint x="231" y="159" as="targetPoint" />
          </mxGeometry>
        </mxCell>
        <mxCell id="AxkiLZUDBh2oXADrsPW7-15" value="&lt;b&gt;&lt;font style=&quot;font-size: 12px;&quot;&gt;Yes&lt;/font&gt;&lt;/b&gt;" style="edgeLabel;resizable=0;html=1;align=center;verticalAlign=middle;" parent="AxkiLZUDBh2oXADrsPW7-14" connectable="0" vertex="1">
          <mxGeometry relative="1" as="geometry" />
        </mxCell>
        <mxCell id="AxkiLZUDBh2oXADrsPW7-26" value="" style="endArrow=classic;html=1;rounded=0;" parent="1" source="AxkiLZUDBh2oXADrsPW7-1" target="AxkiLZUDBh2oXADrsPW7-29" edge="1">
          <mxGeometry width="50" height="50" relative="1" as="geometry">
            <mxPoint x="110" y="198.77777777777783" as="sourcePoint" />
            <mxPoint x="401" y="256" as="targetPoint" />
            <Array as="points">
              <mxPoint x="350" y="301" />
            </Array>
          </mxGeometry>
        </mxCell>
        <mxCell id="AxkiLZUDBh2oXADrsPW7-29" value="&lt;div&gt;&lt;b&gt;&lt;font style=&quot;font-size: 13px;&quot;&gt;100% foliage burn&lt;/font&gt;&lt;/b&gt;&lt;/div&gt;" style="rounded=0;whiteSpace=wrap;html=1;fillColor=#ffe6cc;strokeColor=#d79b00;" parent="1" vertex="1">
          <mxGeometry x="602" y="281" width="131" height="39" as="geometry" />
        </mxCell>
        <mxCell id="AxkiLZUDBh2oXADrsPW7-31" value="&lt;div style=&quot;font-size: 13px;&quot;&gt;&lt;b&gt;&lt;font style=&quot;font-size: 13px;&quot;&gt;Crown bud &lt;br&gt;&lt;/font&gt;&lt;/b&gt;&lt;/div&gt;&lt;div style=&quot;font-size: 13px;&quot;&gt;&lt;b&gt;&lt;font style=&quot;font-size: 13px;&quot;&gt;survival&lt;/font&gt;&lt;/b&gt;&lt;/div&gt;" style="rounded=0;whiteSpace=wrap;html=1;fillColor=#d5e8d4;strokeColor=#82b366;" parent="1" vertex="1">
          <mxGeometry x="603" y="92" width="130" height="42" as="geometry" />
        </mxCell>
        <mxCell id="AxkiLZUDBh2oXADrsPW7-32" value="" style="endArrow=classic;html=1;rounded=0;" parent="1" source="AxkiLZUDBh2oXADrsPW7-6" target="AxkiLZUDBh2oXADrsPW7-31" edge="1">
          <mxGeometry relative="1" as="geometry">
            <mxPoint x="507" y="291" as="sourcePoint" />
            <mxPoint x="640" y="336" as="targetPoint" />
            <Array as="points" />
          </mxGeometry>
        </mxCell>
        <mxCell id="AxkiLZUDBh2oXADrsPW7-33" value="&lt;font style=&quot;font-size: 12px;&quot;&gt;&lt;b&gt;No&lt;/b&gt;&lt;/font&gt;" style="edgeLabel;resizable=0;html=1;align=center;verticalAlign=middle;" parent="AxkiLZUDBh2oXADrsPW7-32" connectable="0" vertex="1">
          <mxGeometry relative="1" as="geometry" />
        </mxCell>
        <mxCell id="AxkiLZUDBh2oXADrsPW7-34" value="&lt;div style=&quot;font-size: 14px;&quot;&gt;&lt;b style=&quot;&quot;&gt;&lt;font style=&quot;font-size: 14px;&quot;&gt;Surface fire &lt;br&gt;&lt;/font&gt;&lt;/b&gt;&lt;/div&gt;&lt;div style=&quot;font-size: 14px;&quot;&gt;&lt;b style=&quot;&quot;&gt;&lt;font style=&quot;font-size: 14px;&quot;&gt;behavior&lt;/font&gt;&lt;/b&gt;&lt;/div&gt;" style="rounded=0;whiteSpace=wrap;html=1;fillColor=#e3c800;strokeColor=#B09500;fontColor=#000000;" parent="1" vertex="1">
          <mxGeometry x="14" y="412" width="120" height="60" as="geometry" />
        </mxCell>
        <mxCell id="AxkiLZUDBh2oXADrsPW7-37" value="&lt;div style=&quot;font-size: 14px;&quot;&gt;&lt;font style=&quot;font-size: 14px;&quot;&gt;&lt;b&gt;Foliage necrosis height&lt;/b&gt;&lt;/font&gt;&lt;/div&gt;" style="text;html=1;strokeColor=none;fillColor=none;align=center;verticalAlign=middle;whiteSpace=wrap;rounded=0;" parent="1" vertex="1">
          <mxGeometry x="203" y="346" width="140" height="48" as="geometry" />
        </mxCell>
        <mxCell id="AxkiLZUDBh2oXADrsPW7-38" value="&lt;div&gt;&lt;font style=&quot;font-size: 14px;&quot;&gt;&lt;b&gt;Bud necrosis height&lt;/b&gt;&lt;/font&gt;&lt;/div&gt;" style="text;html=1;strokeColor=none;fillColor=none;align=center;verticalAlign=middle;whiteSpace=wrap;rounded=0;" parent="1" vertex="1">
          <mxGeometry x="205" y="485" width="140" height="36" as="geometry" />
        </mxCell>
        <mxCell id="AxkiLZUDBh2oXADrsPW7-39" value="&lt;div&gt;&lt;b&gt;&lt;font style=&quot;font-size: 13px;&quot;&gt;% foliage burn&lt;/font&gt;&lt;/b&gt;&lt;/div&gt;" style="rounded=0;whiteSpace=wrap;html=1;fillColor=#ffe6cc;strokeColor=#d79b00;" parent="1" vertex="1">
          <mxGeometry x="603" y="351" width="130" height="38" as="geometry" />
        </mxCell>
        <mxCell id="AxkiLZUDBh2oXADrsPW7-40" value="" style="endArrow=classic;html=1;rounded=0;" parent="1" source="AxkiLZUDBh2oXADrsPW7-37" target="AxkiLZUDBh2oXADrsPW7-39" edge="1">
          <mxGeometry width="50" height="50" relative="1" as="geometry">
            <mxPoint x="354" y="232" as="sourcePoint" />
            <mxPoint x="407" y="232" as="targetPoint" />
          </mxGeometry>
        </mxCell>
        <mxCell id="AxkiLZUDBh2oXADrsPW7-42" value="&lt;b&gt;&lt;font style=&quot;font-size: 13px;&quot;&gt;% crown bud necrosis&lt;/font&gt;&lt;/b&gt;" style="rounded=0;whiteSpace=wrap;html=1;fillColor=#ffe6cc;strokeColor=#d79b00;" parent="1" vertex="1">
          <mxGeometry x="603" y="482" width="130" height="44" as="geometry" />
        </mxCell>
        <mxCell id="AxkiLZUDBh2oXADrsPW7-48" value="" style="endArrow=classic;html=1;rounded=0;" parent="1" source="AxkiLZUDBh2oXADrsPW7-38" target="AxkiLZUDBh2oXADrsPW7-42" edge="1">
          <mxGeometry width="50" height="50" relative="1" as="geometry">
            <mxPoint x="354" y="198" as="sourcePoint" />
            <mxPoint x="404.83828503216387" y="503.5782213674647" as="targetPoint" />
          </mxGeometry>
        </mxCell>
        <mxCell id="AxkiLZUDBh2oXADrsPW7-54" value="&lt;div&gt;&lt;font style=&quot;font-size: 14px;&quot;&gt;&lt;b&gt;Radial bole necrosis depth&lt;/b&gt;&lt;/font&gt;&lt;br&gt;&lt;/div&gt;&lt;div&gt;[xn bole]&lt;/div&gt;" style="text;html=1;strokeColor=none;fillColor=none;align=center;verticalAlign=middle;whiteSpace=wrap;rounded=0;" parent="1" vertex="1">
          <mxGeometry x="189" y="670" width="140" height="60" as="geometry" />
        </mxCell>
        <mxCell id="AxkiLZUDBh2oXADrsPW7-55" value="&lt;b&gt;&lt;font style=&quot;font-size: 13px;&quot;&gt;xn bole &amp;gt; xba?&lt;/font&gt;&lt;/b&gt;" style="rhombus;whiteSpace=wrap;html=1;fillColor=#dae8fc;strokeColor=#6c8ebf;" parent="1" vertex="1">
          <mxGeometry x="384" y="660" width="144" height="80" as="geometry" />
        </mxCell>
        <mxCell id="AxkiLZUDBh2oXADrsPW7-56" value="" style="endArrow=classic;html=1;rounded=0;" parent="1" source="AxkiLZUDBh2oXADrsPW7-54" target="AxkiLZUDBh2oXADrsPW7-55" edge="1">
          <mxGeometry width="50" height="50" relative="1" as="geometry">
            <mxPoint x="377" y="527" as="sourcePoint" />
            <mxPoint x="421" y="527" as="targetPoint" />
          </mxGeometry>
        </mxCell>
        <mxCell id="AxkiLZUDBh2oXADrsPW7-57" value="&lt;i&gt;&lt;font style=&quot;font-size: 13px;&quot;&gt;Foliage distribution&lt;/font&gt;&lt;/i&gt;" style="text;html=1;strokeColor=none;fillColor=none;align=center;verticalAlign=middle;whiteSpace=wrap;rounded=0;" parent="1" vertex="1">
          <mxGeometry x="425" y="420" width="60" height="30" as="geometry" />
        </mxCell>
        <mxCell id="AxkiLZUDBh2oXADrsPW7-58" value="" style="shape=flexArrow;endArrow=classic;html=1;rounded=0;" parent="1" edge="1">
          <mxGeometry width="50" height="50" relative="1" as="geometry">
            <mxPoint x="455" y="452" as="sourcePoint" />
            <mxPoint x="455" y="496" as="targetPoint" />
          </mxGeometry>
        </mxCell>
        <mxCell id="AxkiLZUDBh2oXADrsPW7-64" value="&lt;font style=&quot;font-size: 13px;&quot;&gt;&lt;b&gt;Cambium necrosis&lt;/b&gt;&lt;/font&gt;" style="rounded=0;whiteSpace=wrap;html=1;fillColor=#ffe6cc;strokeColor=#d79b00;" parent="1" vertex="1">
          <mxGeometry x="602" y="665" width="131" height="32" as="geometry" />
        </mxCell>
        <mxCell id="AxkiLZUDBh2oXADrsPW7-65" value="" style="endArrow=classic;html=1;rounded=0;" parent="1" source="AxkiLZUDBh2oXADrsPW7-55" target="AxkiLZUDBh2oXADrsPW7-64" edge="1">
          <mxGeometry relative="1" as="geometry">
            <mxPoint x="557" y="691" as="sourcePoint" />
            <mxPoint x="240" y="785" as="targetPoint" />
          </mxGeometry>
        </mxCell>
        <mxCell id="AxkiLZUDBh2oXADrsPW7-66" value="&lt;font style=&quot;font-size: 12px;&quot;&gt;&lt;b&gt;Yes&lt;/b&gt;&lt;/font&gt;" style="edgeLabel;resizable=0;html=1;align=center;verticalAlign=middle;" parent="AxkiLZUDBh2oXADrsPW7-65" connectable="0" vertex="1">
          <mxGeometry relative="1" as="geometry" />
        </mxCell>
        <mxCell id="AxkiLZUDBh2oXADrsPW7-67" value="&lt;font style=&quot;font-size: 13px;&quot;&gt;&lt;b&gt;Cambium survival&lt;/b&gt;&lt;/font&gt;" style="rounded=0;whiteSpace=wrap;html=1;fillColor=#d5e8d4;strokeColor=#82b366;" parent="1" vertex="1">
          <mxGeometry x="602" y="708" width="131" height="27" as="geometry" />
        </mxCell>
        <mxCell id="AxkiLZUDBh2oXADrsPW7-68" value="" style="endArrow=classic;html=1;rounded=0;" parent="1" source="AxkiLZUDBh2oXADrsPW7-55" target="AxkiLZUDBh2oXADrsPW7-67" edge="1">
          <mxGeometry relative="1" as="geometry">
            <mxPoint x="529" y="705" as="sourcePoint" />
            <mxPoint x="649" y="962" as="targetPoint" />
            <Array as="points" />
          </mxGeometry>
        </mxCell>
        <mxCell id="AxkiLZUDBh2oXADrsPW7-69" value="&lt;b&gt;&lt;font style=&quot;font-size: 12px;&quot;&gt;No&lt;/font&gt;&lt;/b&gt;" style="edgeLabel;resizable=0;html=1;align=center;verticalAlign=middle;" parent="AxkiLZUDBh2oXADrsPW7-68" connectable="0" vertex="1">
          <mxGeometry relative="1" as="geometry" />
        </mxCell>
        <mxCell id="AxkiLZUDBh2oXADrsPW7-73" value="&lt;font style=&quot;font-size: 13px;&quot;&gt;&lt;i&gt;Bark thermal diffusivity&lt;/i&gt;&lt;/font&gt;" style="text;html=1;strokeColor=none;fillColor=none;align=center;verticalAlign=middle;whiteSpace=wrap;rounded=0;" parent="1" vertex="1">
          <mxGeometry x="58" y="684" width="90" height="30" as="geometry" />
        </mxCell>
        <mxCell id="AxkiLZUDBh2oXADrsPW7-74" value="" style="shape=flexArrow;endArrow=classic;html=1;rounded=0;" parent="1" source="AxkiLZUDBh2oXADrsPW7-73" target="AxkiLZUDBh2oXADrsPW7-54" edge="1">
          <mxGeometry width="50" height="50" relative="1" as="geometry">
            <mxPoint x="500" y="397" as="sourcePoint" />
            <mxPoint x="210" y="690" as="targetPoint" />
          </mxGeometry>
        </mxCell>
        <mxCell id="AxkiLZUDBh2oXADrsPW7-75" value="&lt;div&gt;&lt;i&gt;&lt;font style=&quot;font-size: 14px;&quot;&gt;Bark basal thickness&lt;/font&gt;&lt;br&gt;&lt;/i&gt;&lt;/div&gt;&lt;div&gt;[xba]&lt;br&gt;&lt;/div&gt;" style="text;html=1;strokeColor=none;fillColor=none;align=center;verticalAlign=middle;whiteSpace=wrap;rounded=0;" parent="1" vertex="1">
          <mxGeometry x="387" y="763" width="140" height="60" as="geometry" />
        </mxCell>
        <mxCell id="AxkiLZUDBh2oXADrsPW7-76" value="" style="endArrow=classic;html=1;rounded=0;" parent="1" target="AxkiLZUDBh2oXADrsPW7-55" edge="1">
          <mxGeometry width="50" height="50" relative="1" as="geometry">
            <mxPoint x="456" y="763" as="sourcePoint" />
            <mxPoint x="396" y="693" as="targetPoint" />
          </mxGeometry>
        </mxCell>
        <mxCell id="AxkiLZUDBh2oXADrsPW7-81" value="&lt;div style=&quot;font-size: 13px;&quot;&gt;&lt;b&gt;&lt;font style=&quot;font-size: 13px;&quot;&gt;100% bud necrosis BUT&lt;/font&gt;&lt;/b&gt;&lt;/div&gt;&lt;div style=&quot;font-size: 13px;&quot;&gt;&lt;b&gt;&lt;font style=&quot;font-size: 13px;&quot;&gt;cambium survival AND epicormic &lt;br&gt;&lt;/font&gt;&lt;/b&gt;&lt;/div&gt;&lt;div style=&quot;font-size: 13px;&quot;&gt;&lt;b&gt;&lt;font style=&quot;font-size: 13px;&quot;&gt;resprouting?&lt;/font&gt;&lt;/b&gt;&lt;/div&gt;" style="rhombus;whiteSpace=wrap;html=1;fillColor=#dae8fc;strokeColor=#6c8ebf;" parent="1" vertex="1">
          <mxGeometry x="812" y="260" width="220" height="120" as="geometry" />
        </mxCell>
        <mxCell id="AxkiLZUDBh2oXADrsPW7-83" value="" style="endArrow=classic;html=1;rounded=0;" parent="1" source="AxkiLZUDBh2oXADrsPW7-13" target="AxkiLZUDBh2oXADrsPW7-81" edge="1">
          <mxGeometry width="50" height="50" relative="1" as="geometry">
            <mxPoint x="600" y="420" as="sourcePoint" />
            <mxPoint x="650" y="370" as="targetPoint" />
            <Array as="points">
              <mxPoint x="760" y="180" />
              <mxPoint x="760" y="320" />
            </Array>
          </mxGeometry>
        </mxCell>
        <mxCell id="AxkiLZUDBh2oXADrsPW7-85" value="" style="endArrow=classic;html=1;rounded=0;" parent="1" source="AxkiLZUDBh2oXADrsPW7-81" target="AxkiLZUDBh2oXADrsPW7-101" edge="1">
          <mxGeometry relative="1" as="geometry">
            <mxPoint x="393" y="241" as="sourcePoint" />
            <mxPoint x="507" y="240" as="targetPoint" />
          </mxGeometry>
        </mxCell>
        <mxCell id="AxkiLZUDBh2oXADrsPW7-86" value="&lt;b&gt;&lt;font style=&quot;font-size: 12px;&quot;&gt;Yes&lt;/font&gt;&lt;/b&gt;" style="edgeLabel;resizable=0;html=1;align=center;verticalAlign=middle;" parent="AxkiLZUDBh2oXADrsPW7-85" connectable="0" vertex="1">
          <mxGeometry relative="1" as="geometry" />
        </mxCell>
        <mxCell id="AxkiLZUDBh2oXADrsPW7-87" value="&lt;div style=&quot;font-size: 13px;&quot;&gt;&lt;b&gt;&lt;font style=&quot;font-size: 13px;&quot;&gt;Above-ground&lt;/font&gt;&lt;/b&gt;&lt;/div&gt;&lt;div style=&quot;font-size: 13px;&quot;&gt;&lt;b&gt;&lt;font style=&quot;font-size: 13px;&quot;&gt;mortality&lt;/font&gt;&lt;/b&gt;&lt;br&gt;&lt;/div&gt;&lt;div style=&quot;font-size: 13px;&quot;&gt;&lt;b&gt;&lt;font style=&quot;font-size: 13px;&quot;&gt;(top-kill)&lt;/font&gt;&lt;/b&gt;&lt;/div&gt;" style="rounded=0;whiteSpace=wrap;html=1;fillColor=#a0522d;fontColor=#ffffff;strokeColor=#6D1F00;" parent="1" vertex="1">
          <mxGeometry x="862" y="494" width="120" height="60" as="geometry" />
        </mxCell>
        <mxCell id="AxkiLZUDBh2oXADrsPW7-88" value="" style="endArrow=classic;html=1;rounded=0;" parent="1" source="AxkiLZUDBh2oXADrsPW7-81" target="AxkiLZUDBh2oXADrsPW7-87" edge="1">
          <mxGeometry relative="1" as="geometry">
            <mxPoint x="373" y="256" as="sourcePoint" />
            <mxPoint x="507" y="304" as="targetPoint" />
            <Array as="points" />
          </mxGeometry>
        </mxCell>
        <mxCell id="AxkiLZUDBh2oXADrsPW7-89" value="&lt;b&gt;&lt;font style=&quot;font-size: 12px;&quot;&gt;No&lt;/font&gt;&lt;/b&gt;" style="edgeLabel;resizable=0;html=1;align=center;verticalAlign=middle;" parent="AxkiLZUDBh2oXADrsPW7-88" connectable="0" vertex="1">
          <mxGeometry relative="1" as="geometry" />
        </mxCell>
        <mxCell id="AxkiLZUDBh2oXADrsPW7-90" value="" style="endArrow=classic;html=1;rounded=0;" parent="1" source="AxkiLZUDBh2oXADrsPW7-64" target="AxkiLZUDBh2oXADrsPW7-87" edge="1">
          <mxGeometry width="50" height="50" relative="1" as="geometry">
            <mxPoint x="750" y="515" as="sourcePoint" />
            <mxPoint x="1049" y="291" as="targetPoint" />
          </mxGeometry>
        </mxCell>
        <mxCell id="AxkiLZUDBh2oXADrsPW7-92" value="&lt;b&gt;&lt;font style=&quot;font-size: 13px;&quot;&gt;Basal resprouting?&lt;/font&gt;&lt;/b&gt;" style="rhombus;whiteSpace=wrap;html=1;fillColor=#dae8fc;strokeColor=#6c8ebf;" parent="1" vertex="1">
          <mxGeometry x="850" y="635" width="144" height="80" as="geometry" />
        </mxCell>
        <mxCell id="AxkiLZUDBh2oXADrsPW7-93" value="" style="endArrow=classic;html=1;rounded=0;" parent="1" source="AxkiLZUDBh2oXADrsPW7-87" target="AxkiLZUDBh2oXADrsPW7-92" edge="1">
          <mxGeometry width="50" height="50" relative="1" as="geometry">
            <mxPoint x="610" y="515" as="sourcePoint" />
            <mxPoint x="891" y="263" as="targetPoint" />
          </mxGeometry>
        </mxCell>
        <mxCell id="AxkiLZUDBh2oXADrsPW7-95" value="&lt;b&gt;&lt;font style=&quot;font-size: 13px;&quot;&gt;Plant mortality&lt;/font&gt;&lt;/b&gt;" style="rounded=0;whiteSpace=wrap;html=1;fillColor=#a0522d;strokeColor=#6D1F00;fontColor=#ffffff;" parent="1" vertex="1">
          <mxGeometry x="816" y="750" width="100" height="60" as="geometry" />
        </mxCell>
        <mxCell id="AxkiLZUDBh2oXADrsPW7-96" value="" style="endArrow=classic;html=1;rounded=0;" parent="1" source="AxkiLZUDBh2oXADrsPW7-92" target="AxkiLZUDBh2oXADrsPW7-95" edge="1">
          <mxGeometry relative="1" as="geometry">
            <mxPoint x="929" y="280" as="sourcePoint" />
            <mxPoint x="932" y="546" as="targetPoint" />
            <Array as="points" />
          </mxGeometry>
        </mxCell>
        <mxCell id="AxkiLZUDBh2oXADrsPW7-97" value="&lt;b&gt;&lt;font style=&quot;font-size: 12px;&quot;&gt;No&lt;/font&gt;&lt;/b&gt;" style="edgeLabel;resizable=0;html=1;align=center;verticalAlign=middle;" parent="AxkiLZUDBh2oXADrsPW7-96" connectable="0" vertex="1">
          <mxGeometry relative="1" as="geometry" />
        </mxCell>
        <mxCell id="AxkiLZUDBh2oXADrsPW7-98" value="&lt;div&gt;&lt;b&gt;&lt;font style=&quot;font-size: 13px;&quot;&gt;Resprouting&lt;/font&gt;&lt;/b&gt;&lt;/div&gt;&lt;div&gt;&lt;b&gt;(fordyn)&lt;/b&gt;&lt;br&gt;&lt;/div&gt;" style="rounded=0;whiteSpace=wrap;html=1;fillColor=#6d8764;strokeColor=#3A5431;fontColor=#ffffff;" parent="1" vertex="1">
          <mxGeometry x="927" y="750" width="101" height="60" as="geometry" />
        </mxCell>
        <mxCell id="AxkiLZUDBh2oXADrsPW7-99" value="" style="endArrow=classic;html=1;rounded=0;" parent="1" source="AxkiLZUDBh2oXADrsPW7-92" target="AxkiLZUDBh2oXADrsPW7-98" edge="1">
          <mxGeometry relative="1" as="geometry">
            <mxPoint x="849" y="216" as="sourcePoint" />
            <mxPoint x="627" y="177" as="targetPoint" />
          </mxGeometry>
        </mxCell>
        <mxCell id="AxkiLZUDBh2oXADrsPW7-100" value="&lt;font style=&quot;font-size: 12px;&quot;&gt;&lt;b&gt;Yes&lt;/b&gt;&lt;/font&gt;" style="edgeLabel;resizable=0;html=1;align=center;verticalAlign=middle;" parent="AxkiLZUDBh2oXADrsPW7-99" connectable="0" vertex="1">
          <mxGeometry relative="1" as="geometry" />
        </mxCell>
        <mxCell id="AxkiLZUDBh2oXADrsPW7-101" value="&lt;div style=&quot;font-size: 13px;&quot;&gt;&lt;b&gt;&lt;font style=&quot;font-size: 13px;&quot;&gt;Above-ground&lt;/font&gt;&lt;/b&gt;&lt;/div&gt;&lt;div style=&quot;font-size: 13px;&quot;&gt;&lt;b&gt;&lt;font style=&quot;font-size: 13px;&quot;&gt;survival&lt;/font&gt;&lt;/b&gt;&lt;br&gt;&lt;/div&gt;" style="rounded=0;whiteSpace=wrap;html=1;fillColor=#6d8764;strokeColor=#3A5431;fontColor=#ffffff;" parent="1" vertex="1">
          <mxGeometry x="862" y="81" width="120" height="60" as="geometry" />
        </mxCell>
        <mxCell id="bId5LgiYHKoCAPE9A3Xx-1" value="" style="endArrow=classic;html=1;rounded=0;" parent="1" source="AxkiLZUDBh2oXADrsPW7-34" target="AxkiLZUDBh2oXADrsPW7-1" edge="1">
          <mxGeometry relative="1" as="geometry">
            <mxPoint x="119" y="515" as="sourcePoint" />
            <mxPoint x="80" y="201" as="targetPoint" />
          </mxGeometry>
        </mxCell>
        <mxCell id="bId5LgiYHKoCAPE9A3Xx-2" value="&lt;b&gt;&lt;font style=&quot;font-size: 13px;&quot;&gt;Torching&lt;/font&gt;&lt;/b&gt;" style="edgeLabel;resizable=0;html=1;align=center;verticalAlign=middle;" parent="bId5LgiYHKoCAPE9A3Xx-1" connectable="0" vertex="1">
          <mxGeometry relative="1" as="geometry" />
        </mxCell>
        <mxCell id="bId5LgiYHKoCAPE9A3Xx-3" value="&lt;font style=&quot;font-size: 13px;&quot;&gt;&lt;i&gt;Crown base height&lt;/i&gt;&lt;/font&gt;" style="text;html=1;strokeColor=none;fillColor=none;align=center;verticalAlign=middle;whiteSpace=wrap;rounded=0;" parent="1" vertex="1">
          <mxGeometry x="149" y="295" width="80" height="30" as="geometry" />
        </mxCell>
        <mxCell id="bId5LgiYHKoCAPE9A3Xx-4" value="" style="shape=flexArrow;endArrow=classic;html=1;rounded=0;" parent="1" source="bId5LgiYHKoCAPE9A3Xx-3" edge="1">
          <mxGeometry width="50" height="50" relative="1" as="geometry">
            <mxPoint x="504" y="397" as="sourcePoint" />
            <mxPoint x="104" y="310" as="targetPoint" />
          </mxGeometry>
        </mxCell>
        <mxCell id="bId5LgiYHKoCAPE9A3Xx-9" value="&lt;b&gt;&lt;font style=&quot;font-size: 16px;&quot;&gt;Fire behavior&lt;/font&gt;&lt;/b&gt;" style="text;html=1;align=center;verticalAlign=middle;resizable=0;points=[];autosize=1;strokeColor=none;fillColor=none;" parent="1" vertex="1">
          <mxGeometry x="21" y="11" width="120" height="30" as="geometry" />
        </mxCell>
        <mxCell id="bId5LgiYHKoCAPE9A3Xx-10" value="&lt;font style=&quot;&quot;&gt;&lt;b style=&quot;&quot;&gt;&lt;font style=&quot;font-size: 16px;&quot;&gt;Organ-level effects&lt;/font&gt;&lt;br&gt;&lt;/b&gt;&lt;/font&gt;" style="text;html=1;align=center;verticalAlign=middle;resizable=0;points=[];autosize=1;strokeColor=none;fillColor=none;" parent="1" vertex="1">
          <mxGeometry x="578" y="9" width="170" height="30" as="geometry" />
        </mxCell>
        <mxCell id="bId5LgiYHKoCAPE9A3Xx-11" value="&lt;font style=&quot;&quot;&gt;&lt;b style=&quot;&quot;&gt;&lt;font style=&quot;font-size: 16px;&quot;&gt;Whole-plant effects&lt;/font&gt;&lt;br&gt;&lt;/b&gt;&lt;/font&gt;" style="text;html=1;align=center;verticalAlign=middle;resizable=0;points=[];autosize=1;strokeColor=none;fillColor=none;" parent="1" vertex="1">
          <mxGeometry x="831" y="9" width="170" height="30" as="geometry" />
        </mxCell>
        <mxCell id="bId5LgiYHKoCAPE9A3Xx-12" value="&lt;font style=&quot;font-size: 13px;&quot;&gt;&lt;i&gt;DBH&lt;/i&gt;&lt;/font&gt;" style="text;html=1;strokeColor=none;fillColor=none;align=center;verticalAlign=middle;whiteSpace=wrap;rounded=0;" parent="1" vertex="1">
          <mxGeometry x="303" y="778" width="40" height="30" as="geometry" />
        </mxCell>
        <mxCell id="bId5LgiYHKoCAPE9A3Xx-13" value="" style="shape=flexArrow;endArrow=classic;html=1;rounded=0;" parent="1" edge="1">
          <mxGeometry width="50" height="50" relative="1" as="geometry">
            <mxPoint x="345" y="793" as="sourcePoint" />
            <mxPoint x="386" y="793" as="targetPoint" />
          </mxGeometry>
        </mxCell>
        <mxCell id="bId5LgiYHKoCAPE9A3Xx-15" value="" style="endArrow=classic;html=1;rounded=0;" parent="1" source="AxkiLZUDBh2oXADrsPW7-31" target="AxkiLZUDBh2oXADrsPW7-101" edge="1">
          <mxGeometry width="50" height="50" relative="1" as="geometry">
            <mxPoint x="759" y="192" as="sourcePoint" />
            <mxPoint x="982" y="232" as="targetPoint" />
          </mxGeometry>
        </mxCell>
        <mxCell id="bId5LgiYHKoCAPE9A3Xx-17" value="" style="endArrow=classic;html=1;rounded=0;" parent="1" source="AxkiLZUDBh2oXADrsPW7-67" target="AxkiLZUDBh2oXADrsPW7-81" edge="1">
          <mxGeometry width="50" height="50" relative="1" as="geometry">
            <mxPoint x="770" y="611" as="sourcePoint" />
            <mxPoint x="1000" y="105" as="targetPoint" />
            <Array as="points">
              <mxPoint x="770" y="722" />
              <mxPoint x="770" y="320" />
            </Array>
          </mxGeometry>
        </mxCell>
        <mxCell id="bId5LgiYHKoCAPE9A3Xx-18" value="" style="shape=flexArrow;endArrow=classic;html=1;rounded=0;" parent="1" source="AxkiLZUDBh2oXADrsPW7-57" edge="1">
          <mxGeometry width="50" height="50" relative="1" as="geometry">
            <mxPoint x="455" y="413" as="sourcePoint" />
            <mxPoint x="455" y="373" as="targetPoint" />
          </mxGeometry>
        </mxCell>
        <mxCell id="V_vKVet12LrxLl0EVJMe-1" value="&lt;font style=&quot;&quot;&gt;&lt;b style=&quot;&quot;&gt;&lt;font style=&quot;font-size: 16px;&quot;&gt;Severity metrics&lt;/font&gt;&lt;br&gt;&lt;/b&gt;&lt;/font&gt;" style="text;html=1;align=center;verticalAlign=middle;resizable=0;points=[];autosize=1;strokeColor=none;fillColor=none;" parent="1" vertex="1">
          <mxGeometry x="204" y="9" width="150" height="30" as="geometry" />
        </mxCell>
        <mxCell id="V_vKVet12LrxLl0EVJMe-3" value="" style="endArrow=classic;html=1;rounded=0;" parent="1" source="AxkiLZUDBh2oXADrsPW7-1" target="AxkiLZUDBh2oXADrsPW7-8" edge="1">
          <mxGeometry width="50" height="50" relative="1" as="geometry">
            <mxPoint x="110" y="180.0298507462685" as="sourcePoint" />
            <mxPoint x="416" y="547" as="targetPoint" />
          </mxGeometry>
        </mxCell>
        <mxCell id="V_vKVet12LrxLl0EVJMe-5" value="" style="endArrow=classic;html=1;rounded=0;" parent="1" source="AxkiLZUDBh2oXADrsPW7-34" target="AxkiLZUDBh2oXADrsPW7-37" edge="1">
          <mxGeometry width="50" height="50" relative="1" as="geometry">
            <mxPoint x="110" y="460.06976744186045" as="sourcePoint" />
            <mxPoint x="231" y="168" as="targetPoint" />
          </mxGeometry>
        </mxCell>
        <mxCell id="V_vKVet12LrxLl0EVJMe-6" value="" style="endArrow=classic;html=1;rounded=0;" parent="1" source="AxkiLZUDBh2oXADrsPW7-34" target="AxkiLZUDBh2oXADrsPW7-38" edge="1">
          <mxGeometry width="50" height="50" relative="1" as="geometry">
            <mxPoint x="143" y="460" as="sourcePoint" />
            <mxPoint x="246" y="408" as="targetPoint" />
          </mxGeometry>
        </mxCell>
        <mxCell id="V_vKVet12LrxLl0EVJMe-7" value="" style="endArrow=classic;html=1;rounded=0;" parent="1" source="AxkiLZUDBh2oXADrsPW7-34" target="AxkiLZUDBh2oXADrsPW7-54" edge="1">
          <mxGeometry width="50" height="50" relative="1" as="geometry">
            <mxPoint x="144" y="496" as="sourcePoint" />
            <mxPoint x="237" y="506" as="targetPoint" />
          </mxGeometry>
        </mxCell>
        <mxCell id="A-jF-uig9fjTOBabsv4m-1" value="" style="endArrow=classic;html=1;rounded=0;" edge="1" parent="1" source="AxkiLZUDBh2oXADrsPW7-42" target="AxkiLZUDBh2oXADrsPW7-81">
          <mxGeometry width="50" height="50" relative="1" as="geometry">
            <mxPoint x="743" y="207" as="sourcePoint" />
            <mxPoint x="902" y="286" as="targetPoint" />
            <Array as="points">
              <mxPoint x="760" y="504" />
              <mxPoint x="760" y="320" />
            </Array>
          </mxGeometry>
        </mxCell>
      </root>
    </mxGraphModel>
  </diagram>
</mxfile>
